<svg xmlns="http://www.w3.org/2000/svg" viewBox="0 0 512 512">
  <rect width="512" height="512" rx="96" fill="#f0f7ff"/>
  <g opacity="0.85">
    <rect x="88" y="88" width="336" height="336" fill="none" stroke="#d7dde6" stroke-width="8"/>
    <path d="M155 88V424M222 88V424M289 88V424M356 88V424" stroke="#d7dde6" stroke-width="6"/>
    <path d="M88 155H424M88 222H424M88 289H424M88 356H424" stroke="#d7dde6" stroke-width="6"/>
  </g>
  <g fill="#2f2f36" opacity="0.85">
    <rect x="155" y="155" width="67" height="67" rx="10"/>
    <rect x="289" y="222" width="67" height="67" rx="10"/>
    <rect x="222" y="356" width="67" height="67" rx="10"/>
  </g>
  <g fill="#7b4cff">
    <rect x="164" y="258" width="36" height="36" rx="8"/>
    <rect x="196" y="290" width="36" height="36" rx="8"/>
    <rect x="228" y="258" width="36" height="36" rx="8"/>
  </g>
</svg>
